<?xml version="1.0" encoding="UTF-8" standalone="no"?>
<!-- Created with Inkscape (http://www.inkscape.org/) -->

<svg
   width="13.066mm"
   height="13.066mm"
   viewBox="0 0 13.066 13.066"
   version="1.1"
   id="svg1"
   xml:space="preserve"
   inkscape:version="1.3.2 (091e20ef0f, 2023-11-25)"
   sodipodi:docname="nationaltrail2.svg"
   xmlns:inkscape="http://www.inkscape.org/namespaces/inkscape"
   xmlns:sodipodi="http://sodipodi.sourceforge.net/DTD/sodipodi-0.dtd"
   xmlns="http://www.w3.org/2000/svg"
   xmlns:svg="http://www.w3.org/2000/svg"><sodipodi:namedview
     id="namedview1"
     pagecolor="#ffffff"
     bordercolor="#999999"
     borderopacity="1"
     inkscape:showpageshadow="0"
     inkscape:pageopacity="0"
     inkscape:pagecheckerboard="true"
     inkscape:deskcolor="#d1d1d1"
     inkscape:document-units="mm"
     inkscape:zoom="2.2349852"
     inkscape:cx="14.765199"
     inkscape:cy="40.939869"
     inkscape:window-width="958"
     inkscape:window-height="1046"
     inkscape:window-x="0"
     inkscape:window-y="0"
     inkscape:window-maximized="0"
     inkscape:current-layer="layer1" /><defs
     id="defs1" /><g
     inkscape:label="Layer 1"
     inkscape:groupmode="layer"
     id="layer1"
     transform="translate(-100.70545,-134.19962)"><path
       style="fill:#000000;stroke-width:0.907093"
       d="m 104.51822,145.77557 c -0.1841,-0.17716 -0.0691,-0.27121 0.81027,-0.6625 0.49519,-0.22034 0.90035,-0.42193 0.90035,-0.44796 0,-0.0261 -0.23781,-0.15352 -0.52847,-0.28329 -1.30743,-0.58376 -2.42224,-1.36995 -2.64414,-1.8647 -0.13663,-0.30462 -0.0608,-0.62225 0.18556,-0.77679 0.18431,-0.11564 0.52447,-0.125 3.72837,-0.10246 3.45273,0.0243 3.52918,0.028 3.7017,0.18264 0.12229,0.10959 0.17615,0.24437 0.17615,0.44082 0,0.23393 -0.0645,0.34894 -0.37188,0.66363 -0.55086,0.56388 -1.52741,1.1055 -3.52082,1.95276 -2.47225,1.05078 -2.33189,0.99907 -2.43709,0.89785 z m -0.43539,-4.71664 c -0.13751,-0.2141 -0.30458,-1.58539 -0.33897,-2.78213 -0.0468,-1.62966 0.01,-1.85062 0.63943,-2.49272 0.47376,-0.48319 1.03233,-0.8595 1.89491,-1.27663 l 0.63653,-0.30783 0.57333,0.26439 c 1.19079,0.54916 2.07154,1.24154 2.43346,1.91305 0.1725,0.32003 0.18236,0.41497 0.17628,1.69511 -0.006,1.21469 -0.12601,2.33182 -0.31419,2.91936 -0.0392,0.12236 -0.24425,0.13185 -2.8508,0.13185 -1.54473,0 -2.82722,-0.029 -2.84998,-0.0644 z"
       id="path1"
       sodipodi:nodetypes="ssssssssssssscsscsscssss" /></g></svg>
