<?xml version="1.0" encoding="UTF-8" standalone="no"?>
<!-- Created with Inkscape (http://www.inkscape.org/) -->

<svg
   version="1.1"
   width="759.39801"
   height="759.39801"
   id="svg2"
   sodipodi:docname="nationaltrail.svg"
   inkscape:version="1.3.2 (091e20ef0f, 2023-11-25)"
   xmlns:inkscape="http://www.inkscape.org/namespaces/inkscape"
   xmlns:sodipodi="http://sodipodi.sourceforge.net/DTD/sodipodi-0.dtd"
   xmlns="http://www.w3.org/2000/svg"
   xmlns:svg="http://www.w3.org/2000/svg"
   xmlns:rdf="http://www.w3.org/1999/02/22-rdf-syntax-ns#"
   xmlns:cc="http://creativecommons.org/ns#"
   xmlns:dc="http://purl.org/dc/elements/1.1/">
  <sodipodi:namedview
     id="namedview1"
     pagecolor="#ffffff"
     bordercolor="#999999"
     borderopacity="1"
     inkscape:showpageshadow="0"
     inkscape:pageopacity="0"
     inkscape:pagecheckerboard="0"
     inkscape:deskcolor="#d1d1d1"
     inkscape:zoom="0.94013404"
     inkscape:cx="227.62712"
     inkscape:cy="338.78148"
     inkscape:window-width="1920"
     inkscape:window-height="1046"
     inkscape:window-x="0"
     inkscape:window-y="0"
     inkscape:window-maximized="0"
     inkscape:current-layer="layer1" />
  <title
     id="title3599">National_Trails_Icon</title>
  <defs
     id="defs4" />
  <g
     transform="translate(-142.55397,-192.38698)"
     id="layer1"
     style="display:inline">
    <g
       id="g3"
       transform="matrix(0.91350154,0,0,0.90557949,193.14152,18.165277)">
      <path
         d="m 168.02077,673.79043 c -13.76832,-2e-5 -25.4668,14.40357 -25.4668,29.3711 0,33.72909 19.33592,66.71469 53.11133,96.7832 29.34234,26.12197 88.62649,55.48437 112.12109,55.48437 7.37488,0 9.60193,9.50787 1.07032,14.4336 -22.44604,12.95922 -70.8896,34.37713 -94.04883,44.73242 -1.62498,0.72658 -3.19561,3.33826 -3.58985,4.91992 -0.78105,3.13352 -0.73765,6.95915 -0.0762,11.01172 0.23701,1.45203 0.91812,2.77849 2.02344,3.59961 l 21.18164,15.73633 c 3.24225,2.4086 6.54903,2.44545 9.43555,0.71094 38.36113,-23.0513 100.64897,-57.38115 147.15234,-80.48047 11.33383,-6.5436 46.66691,-13.72363 77.56445,-29.51758 29.88001,-15.27383 55.25154,-34.64884 76.66016,-59.05469 22.21566,-25.32586 32.83594,-48.32508 32.83594,-78.35937 0,-15.87841 -11.35783,-29.37108 -25.9961,-29.3711 z"
         style="display:inline;overflow:visible;fill-rule:evenodd;marker:none;enable-background:accumulate"
         id="path3" />
      <path
         d="m 361.75124,192.39004 c -1.00503,-0.0349 -2.01519,0.22774 -2.95508,0.83789 -20.52828,13.32633 -52.6817,32.40399 -85.23633,50.08008 -29.63567,16.09118 -56.37617,38.69422 -71.50781,59.22461 -24.1161,32.72038 -38.36717,78.03199 -38.82617,109.49414 -0.69857,47.88301 -0.0241,88.58888 1.33984,132.82813 0.71367,23.14734 2.3628,50.50493 4.06836,89.30664 0.43909,9.98941 8.64835,22.23046 20.0293,22.23046 h 347.01367 c 9.97786,0 19.82771,-8.65849 20.42578,-22.23046 1.92791,-43.74958 3.32782,-103.92432 3.9043,-151.07813 0.35522,-29.05533 -0.0183,-51.49339 -1.20118,-83.2793 -0.81125,-21.79905 -10.5412,-52.47696 -29.05468,-82.73242 -19.47075,-31.81988 -50.99485,-57.32204 -63.49414,-64.25586 -36.49443,-20.24479 -73.71947,-41.86818 -101.58399,-59.48047 -0.91651,-0.5793 -1.91685,-0.9104 -2.92187,-0.94531 z"
         style="display:inline;overflow:visible;fill-rule:evenodd;marker:none;enable-background:accumulate"
         id="path2" />
    </g>
  </g>
  <metadata
     id="metadata3">
    <rdf:RDF>
      <cc:Work
         rdf:about="">
        <dc:title>National_Trails_Icon</dc:title>
      </cc:Work>
    </rdf:RDF>
  </metadata>
</svg>
