<?xml version="1.0" encoding="UTF-8" standalone="no"?>
<!-- Created with Inkscape (http://www.inkscape.org/) -->

<svg
   width="139.34mm"
   height="139.34mm"
   viewBox="0 0 139.33999 139.34"
   version="1.1"
   id="svg1"
   xml:space="preserve"
   inkscape:version="1.3.2 (091e20ef0f, 2023-11-25)"
   sodipodi:docname="camino.svg"
   xmlns:inkscape="http://www.inkscape.org/namespaces/inkscape"
   xmlns:sodipodi="http://sodipodi.sourceforge.net/DTD/sodipodi-0.dtd"
   xmlns="http://www.w3.org/2000/svg"
   xmlns:svg="http://www.w3.org/2000/svg"><sodipodi:namedview
     id="namedview1"
     pagecolor="#ffffff"
     bordercolor="#999999"
     borderopacity="1"
     inkscape:showpageshadow="0"
     inkscape:pageopacity="0"
     inkscape:pagecheckerboard="0"
     inkscape:deskcolor="#d1d1d1"
     inkscape:document-units="mm"
     inkscape:zoom="0.55874629"
     inkscape:cx="614.76918"
     inkscape:cy="485.90926"
     inkscape:window-width="1920"
     inkscape:window-height="1046"
     inkscape:window-x="0"
     inkscape:window-y="0"
     inkscape:window-maximized="0"
     inkscape:current-layer="layer1" /><defs
     id="defs1" /><g
     inkscape:label="Layer 1"
     inkscape:groupmode="layer"
     id="layer1"
     transform="translate(-37.406341,-77.800255)"><path
       style="fill:#000000;stroke-width:0.950351"
       d="m 105.99581,204.2367 c 0.97821,-1.05602 1.84067,-1.99395 1.91659,-2.08429 0.1362,-0.16212 -0.12767,-0.43241 -20.226762,-20.71836 -11.200622,-11.30475 -21.189945,-21.37858 -22.198496,-22.3863 -1.614892,-1.61354 -1.819799,-1.84581 -1.717006,-1.94626 0.102436,-0.10012 4.678989,2.4681 37.390004,20.98203 27.87316,15.7758 37.29559,21.07339 37.36177,21.00602 0.12194,-0.12412 3.21916,-5.03453 3.21642,-5.0994 -9.5e-4,-0.0287 -16.87869,-9.71455 -37.50552,-21.52407 -20.626818,-11.80952 -37.503315,-21.48966 -37.50332,-21.51141 -5e-6,-0.0217 0.02783,-0.0841 0.06187,-0.13858 0.04692,-0.0752 11.701273,2.94809 48.2245,12.50971 26.48946,6.93482 48.23104,12.62019 48.31463,12.63418 0.13835,0.0232 0.20902,-0.21573 0.78796,-2.66349 0.34978,-1.47891 0.62762,-2.69886 0.61742,-2.711 -0.0102,-0.0121 -21.28724,-6.04807 -47.28229,-13.41319 C 76.439651,145.5519 70.189858,143.76197 70.189858,143.636 c 0,-0.17571 -6.797963,-0.20695 53.030752,0.24374 25.70028,0.1936 47.55943,0.35214 48.57588,0.35231 l 1.8481,3e-4 v -2.878 -2.878 l -1.49794,-0.0468 c -1.26451,-0.0395 -100.114664,-1.08799 -101.850448,-1.08035 -0.526215,0.002 -0.598551,-0.0151 -0.633979,-0.1528 -0.02593,-0.10081 0.0051,-0.16876 0.08819,-0.19338 0.0705,-0.0209 21.348271,-5.59574 47.283937,-12.3886 25.93566,-6.79287 47.16583,-12.35987 47.17815,-12.37113 0.0295,-0.0269 -1.27919,-5.33836 -1.32744,-5.3874 -0.0204,-0.0208 -21.48012,5.22808 -47.68812,11.66417 -34.428891,8.45496 -47.667037,11.67622 -47.709021,11.60915 -0.03196,-0.0511 -0.05864,-0.11211 -0.0593,-0.13564 -6.56e-4,-0.0235 16.587945,-9.04133 36.863551,-20.03954 20.27562,-10.998213 36.88922,-20.018498 36.91912,-20.045078 0.0856,-0.07609 -2.56382,-5.031991 -2.68471,-5.02199 -0.0581,0.0047 -16.71547,8.858755 -37.01628,19.675428 -27.31864,14.55591 -36.927033,19.64027 -36.973934,19.56505 -0.03486,-0.0559 -0.05519,-0.12461 -0.04519,-0.15271 0.01,-0.0281 10.161419,-9.61503 22.558701,-21.30428 l 22.540503,-21.253202 -2.10886,-1.808619 c -1.15988,-0.994738 -2.12875,-1.808506 -2.15305,-1.808374 -0.0243,1.32e-4 -10.317245,9.345286 -22.873217,20.767005 -18.843954,17.14166 -22.846504,20.7483 -22.929015,20.66099 -0.08222,-0.087 1.528573,-2.67409 9.075292,-14.57587 5.04639,-7.95856 9.175254,-14.480099 9.175254,-14.492322 0,-0.01219 -1.321879,-0.693513 -2.937508,-1.513993 l -2.937508,-1.49178 -8.520717,13.358615 c -4.686395,7.34724 -8.532407,13.30144 -8.546694,13.23155 -0.01429,-0.0699 -0.08432,-0.8458 -0.155629,-1.72425 l -0.129655,-1.59718 -1.556295,-0.051 c -0.855963,-0.0281 -2.154999,-0.0734 -2.886748,-0.10063 l -1.330451,-0.0496 -0.05005,2.11732 c -0.02753,1.16452 -0.07173,4.32382 -0.09822,7.02065 -0.03615,3.67991 -0.07242,4.95267 -0.145387,5.10105 -0.05347,0.10875 -0.594906,1.03014 -1.203187,2.04754 -3.51654,5.8817 -5.919396,10.67004 -6.592045,13.13643 -0.240856,0.88315 -0.238353,1.58973 0.009,2.54242 0.641086,2.46909 2.734563,6.75592 6.042668,12.37364 l 1.308581,2.22218 -0.187546,6.12139 c -0.103149,3.36677 -0.208055,6.59294 -0.233121,7.16928 l -0.04558,1.04789 h 3.219552 3.219552 l 0.05024,-0.77109 c 0.02763,-0.42409 0.05289,-1.02021 0.05612,-1.32468 0.0032,-0.30449 0.03108,-0.61864 0.06189,-0.69812 0.04175,-0.10771 2.042653,3.29821 7.858356,13.3765 4.291285,7.43655 7.844068,13.57515 7.895073,13.64132 0.07978,0.10351 0.453289,-0.0913 2.674733,-1.39496 l 2.581999,-1.51528 -0.258085,-0.47452 c -2.129038,-3.91445 -15.994516,-29.72308 -15.994516,-29.77153 0,-0.0366 0.04864,-0.0855 0.108097,-0.10868 0.06845,-0.0267 8.348734,8.04791 22.577797,22.017 12.358332,12.13254 22.4958,22.05916 22.5277,22.05916 0.0319,0 0.85837,-0.86402 1.83659,-1.92002 z"
       id="path2" /></g></svg>
