<?xml version="1.0" encoding="UTF-8" standalone="no"?>
<!-- Created with Inkscape (http://www.inkscape.org/) -->

<svg
   width="100mm"
   height="100mm"
   viewBox="0 0 99.999997 100"
   version="1.1"
   id="svg1"
   xml:space="preserve"
   inkscape:version="1.3.2 (091e20ef0f, 2023-11-25)"
   sodipodi:docname="greattrail.svg"
   xmlns:inkscape="http://www.inkscape.org/namespaces/inkscape"
   xmlns:sodipodi="http://sodipodi.sourceforge.net/DTD/sodipodi-0.dtd"
   xmlns="http://www.w3.org/2000/svg"
   xmlns:svg="http://www.w3.org/2000/svg"><sodipodi:namedview
     id="namedview1"
     pagecolor="#ffffff"
     bordercolor="#999999"
     borderopacity="1"
     inkscape:showpageshadow="0"
     inkscape:pageopacity="0"
     inkscape:pagecheckerboard="0"
     inkscape:deskcolor="#d1d1d1"
     inkscape:document-units="mm"
     inkscape:zoom="1.1174926"
     inkscape:cx="321.25493"
     inkscape:cy="123.93818"
     inkscape:window-width="1920"
     inkscape:window-height="1046"
     inkscape:window-x="0"
     inkscape:window-y="0"
     inkscape:window-maximized="0"
     inkscape:current-layer="layer1" /><defs
     id="defs1" /><g
     inkscape:label="Layer 1"
     inkscape:groupmode="layer"
     id="layer1"
     transform="translate(-43.50469,-126.38026)"><path
       id="path14"
       style="fill:#000000;stroke-width:0.761674"
       d="m 90.031441,191.27243 -0.65059,-0.13666 c -1.138455,-0.23913 -4.190849,-1.54468 -5.630955,-2.40845 -2.762283,-1.65679 -5.088121,-4.29369 -6.641519,-7.52971 -2.636867,-5.49314 -2.220169,-12.04098 1.091645,-17.15376 1.308081,-2.01941 3.977009,-4.58972 6.007232,-5.78528 0.891217,-0.52481 1.620393,-1.01541 1.620393,-1.09019 0,-0.24119 -7.606872,-19.99792 -7.606872,-20.46636 5.076117,-0.28324 30.427485,-0.0165 30.427485,0.18139 0,0.31416 -8.04045,20.51739 -7.96107,20.57391 0.0296,0.0212 0.58184,0.3397 1.22707,0.70793 4.70002,2.68218 7.87294,7.32441 8.83744,12.92984 0.40264,2.34004 0.37626,3.76967 -0.11462,6.21091 -0.93076,4.62894 -3.20235,8.25405 -6.70089,10.69356 -1.36989,0.95521 -3.89996,2.1653 -5.565795,2.66202 -1.013979,0.30234 -1.54313,0.56345 -1.563301,0.77142 -0.01679,0.17293 -0.05144,0.4057 -0.07699,0.51728 -0.08711,6.3899 -0.07714,12.78159 -0.09269,19.17222 H 90.031449 Z M 44.678867,173.64857 c 3.178648,-4.54271 26.434883,-37.16967 26.749269,-36.84455 0.08521,0.0881 5.923609,10.83283 5.666926,11.27548 -0.231616,0.39945 -18.049473,25.16265 -18.201589,25.56439 5.808562,8.96554 12.210618,17.54447 18.363367,26.27656 -2.129268,3.78228 -4.209601,8.41196 -5.97442,11.07508 -8.977229,-13.2251 -17.705068,-25.16062 -26.603553,-37.34696 z m 65.607263,26.40028 c 5.88032,-8.93573 12.21754,-17.54899 18.41342,-26.26022 -5.77895,-8.36186 -11.98847,-17.26022 -18.34977,-25.92995 -0.21743,-0.29633 5.52386,-11.19952 5.70515,-11.18564 8.97163,12.3418 18.79679,24.08946 26.72414,37.12893 -9.23818,12.14764 -15.0588,20.90866 -26.72029,37.11764 -0.0893,0.12418 -5.6915,-10.51845 -5.77265,-10.87076 z"
       sodipodi:nodetypes="csssssssscssssssscccssssccsscscsss" /></g></svg>
